<svg width="615" height="1074" viewBox="0 0 615 1074" fill="none" xmlns="http://www.w3.org/2000/svg">
<g clip-path="url(#clip0_151_818)">
<path d="M36.1268 -23.4948C-40.2977 225.555 83.7264 414.246 320.799 417.204C396.083 418.159 470.288 465.67 512.893 529.943C557.718 597.606 554.235 687.73 586.327 762.756C625.511 854.421 715.346 914.626 809.281 938.844C903.216 963.062 1001.78 956.161 1098.05 945.746V-23.4948H36.1268Z" fill="#D4EEFF"/>
<path d="M900.965 1041C775.802 1047.74 645.848 1053.85 529.469 1011.25C360.977 949.558 240.328 814.233 90.4796 720.706C0.556824 664.604 -110.545 648.982 -213.001 667.278C-298.792 682.588 -452.564 734.558 -547 664.535V1092L901 1086.86V1041.04L900.965 1041Z" fill="#D4EEFF"/>
<path d="M644.968 1076.02C529.486 1082.22 409.584 1087.85 302.207 1048.6C146.747 991.769 35.4296 867.094 -102.828 780.929C-185.796 729.242 -288.304 714.849 -382.835 731.705C-461.991 745.81 -603.868 793.69 -691 729.178V1123L645 1118.27V1076.05L644.968 1076.02Z" fill="#E9F6FF"/>
<path d="M475.652 278.551C655.63 322.858 637.657 394.834 697.311 500.087C774.352 635.997 1012.32 662.156 1172.41 504.832C1241.1 437.324 1260.83 341.992 1271.68 251.252C1277.6 201.769 1282.1 152.131 1285.21 102.463C1286.63 79.6624 1287.74 56.4613 1281.61 34.2769C1273.96 6.63887 1255.43 -17.7639 1233.45 -38.3153C1204.01 -65.8608 1167.76 -87.4906 1128.08 -101.294C1080.73 -117.748 1029.52 -122.832 978.87 -126.19C884.657 -132.476 790.105 -133.277 695.615 -134.078C604.054 -134.879 511.691 -135.618 421.147 -121.445C399.567 -118.056 372.9 -115.776 352.892 -107.518C332.206 -98.9833 336.245 -90.9415 321.046 -73.5637C192.089 73.7466 319.535 240.16 475.621 278.582L475.652 278.551Z" fill="#E9F6FF"/>
<path opacity="0.36" d="M792.633 273.992C972.611 318.299 966.6 384.359 1014.29 495.527C1078.57 645.333 1371.78 612.396 1489.39 500.272C1559.1 433.811 1577.81 337.433 1588.66 246.692C1594.58 197.209 1599.08 147.571 1602.2 97.9031C1603.61 75.1025 1604.72 51.9014 1598.59 29.717C1590.94 2.07898 1572.42 -22.3238 1550.43 -42.8752C1520.99 -70.4208 1484.74 -92.0505 1445.06 -105.854C1397.71 -122.308 1346.5 -127.391 1295.85 -130.75C1201.64 -137.035 1107.09 -137.837 1012.6 -138.638C921.035 -139.439 828.672 -140.178 738.128 -126.005C716.548 -122.616 689.881 -120.336 669.873 -112.078C649.187 -103.543 653.226 -95.5014 638.027 -78.1237C509.07 69.1867 636.516 235.6 792.602 274.022L792.633 273.992Z" fill="white"/>
<path d="M124.112 663.543V647.459H117.299C116.898 646.227 116.405 645.056 115.819 643.947L120.629 639.14L109.253 627.771L104.444 632.577C103.303 631.992 102.131 631.499 100.929 631.098V624.289H84.8365V631.098C83.6034 631.499 82.4319 631.992 81.3221 632.577L76.5128 627.771L65.137 639.14L69.9463 643.947C69.3605 645.087 68.8673 646.258 68.4665 647.459H61.6533V663.543H68.4665C68.8673 664.775 69.3605 665.946 69.9463 667.055L65.137 671.862L76.5128 683.232L81.3221 678.425C82.4627 679.01 83.6342 679.503 84.8365 679.904V686.713H100.929V679.904C102.162 679.503 103.334 679.01 104.444 678.425L109.253 683.232L120.629 671.862L115.819 667.055C116.405 665.915 116.898 664.745 117.299 663.543H124.112ZM92.9137 671.708C83.9733 671.708 76.7286 664.467 76.7286 655.532C76.7286 646.597 83.9733 639.356 92.9137 639.356C101.854 639.356 109.099 646.597 109.099 655.532C109.099 664.467 101.854 671.708 92.9137 671.708Z" fill="#D4EEFF"/>
<path opacity="0.56" d="M294.687 230.455L286.888 218.592L281.863 221.889C280.969 221.18 280.044 220.564 279.057 220.009L280.26 214.124L266.356 211.259L265.153 217.144C264.044 217.267 262.934 217.483 261.824 217.76L258.525 212.738L246.656 220.533L249.955 225.555C249.246 226.449 248.629 227.373 248.074 228.359L242.186 227.158L239.319 241.054L245.207 242.255C245.331 243.365 245.546 244.474 245.824 245.583L240.799 248.88L248.598 260.742L253.624 257.446C254.518 258.154 255.442 258.77 256.429 259.325L255.227 265.21L269.13 268.076L270.333 262.191C271.443 262.067 272.552 261.852 273.662 261.574L276.961 266.597L288.83 258.801L285.531 253.779C286.24 252.885 286.857 251.961 287.412 250.975L293.3 252.177L296.167 238.281L290.279 237.079C290.156 235.97 289.94 234.861 289.662 233.751L294.687 230.455ZM275.604 251.622C269.007 255.967 260.128 254.149 255.782 247.524C251.435 240.93 253.254 232.057 259.882 227.712C266.479 223.368 275.358 225.186 279.705 231.81C284.052 238.404 282.233 247.278 275.604 251.622ZM222.147 250.02L217.246 242.563L214.101 244.628C213.546 244.197 212.96 243.796 212.344 243.457L213.115 239.76L204.359 237.942L203.589 241.639C202.879 241.732 202.201 241.855 201.492 242.04L199.427 238.897L191.966 243.796L194.032 246.939C193.6 247.493 193.199 248.079 192.86 248.695L189.161 247.925L187.342 256.675L191.041 257.446C191.134 258.154 191.257 258.832 191.442 259.541L188.297 261.605L193.199 269.061L196.344 266.997C196.899 267.428 197.484 267.829 198.101 268.168L197.33 271.865L206.086 273.683L206.856 269.986C207.565 269.893 208.244 269.77 208.953 269.585L211.018 272.728L218.479 267.829L216.413 264.686C216.845 264.132 217.246 263.546 217.585 262.93L221.284 263.7L223.103 254.95L219.404 254.179C219.311 253.471 219.188 252.793 219.003 252.084L222.147 250.02ZM210.155 263.331C205.993 266.073 200.413 264.902 197.7 260.773C194.956 256.614 196.128 251.037 200.259 248.325C204.39 245.614 210.001 246.754 212.714 250.883C215.427 255.011 214.286 260.619 210.155 263.331Z" fill="white"/>
<path d="M124.112 544.826C134.174 544.826 142.332 536.673 142.332 526.616C142.332 516.559 134.174 508.406 124.112 508.406C114.049 508.406 105.892 516.559 105.892 526.616C105.892 536.673 114.049 544.826 124.112 544.826Z" fill="#E9F6FF"/>
</g>
<defs>
<clipPath id="clip0_151_818">
<rect width="615" height="1074" fill="white"/>
</clipPath>
</defs>
</svg>
